# xmcd
#
# Track frame offsets: 
#        150
#        8180
#        18015
#        30077
#        40207
#        49992
#        59997
#        70330
#        84012
#        94745
#        104312
#        117995
#        155960
#        171460
#        186317
#        202857
#        213980
#        228307
#        240322
#        249985
#        259915
#        271492
#        280412
#        291137
#        303775
#        315767
#
# Disc length: 4319 seconds
#
# Revision: 14
# Processed by: cddbd v1.5.2PL0 Copyright (c) Steve Scherf et al.
# Submitted via: ExactAudioCopyFreeDBPlugin 1.0
#
DISCID=6410dd1a
DTITLE=Johnny Cash - Cash:  The Legend (Deluxe Edition) [picture book 
DTITLE=box set]
DYEAR=2005
DGENRE=Country
TTITLE0=The Wreck of the Old '97
TTITLE1=Rock Island Line
TTITLE2=Goodnight Irene
TTITLE3=Goodbye Little Darlin'
TTITLE4=Born to Lose
TTITLE5=Walking the Blues
TTITLE6=Frankie's Man, Johnny
TTITLE7=Delia's Gone
TTITLE8=In the Jailhouse Now
TTITLE9=Waiting for a Train
TTITLE10=Casey Jones
TTITLE11=The Legend of John Henry's Hammer
TTITLE12=I've Been Working on the Railroad
TTITLE13=Sweet Betsy from Pike
TTITLE14=The Streets of Laredo
TTITLE15=Bury Me Not on the Lone Prairie
TTITLE16=Down in the Valley
TTITLE17=Wabash Cannonball
TTITLE18=The Great Speckled Bird
TTITLE19=Wildwood Flower
TTITLE20=Cotton Fields
TTITLE21=Pick a Bale o' Cotton
TTITLE22=Old Shep
TTITLE23=I'll Be All Smiles Tonight
TTITLE24=I'm So Lonesome I Could Cry
TTITLE25=Time Changes Everything
EXTD=YEAR: 2010
EXTT0=
EXTT1=
EXTT2=
EXTT3=
EXTT4=
EXTT5=
EXTT6=
EXTT7=
EXTT8=
EXTT9=
EXTT10=
EXTT11=
EXTT12=
EXTT13=
EXTT14=
EXTT15=
EXTT16=
EXTT17=
EXTT18=
EXTT19=
EXTT20=
EXTT21=
EXTT22=
EXTT23=
EXTT24=
EXTT25=
PLAYORDER=
